<?xml version="1.0" encoding="UTF-8"?>
<svg id="_圖層_1" data-name="圖層 1" xmlns="http://www.w3.org/2000/svg" viewBox="0 0 220 220">
  <defs>
    <style>
      .cls-1 {
        fill: #3cbeb3;
      }

      .cls-2 {
        fill: #fff;
      }

      .cls-3 {
        fill: #20514b;
      }
    </style>
  </defs>
  <rect class="cls-3" width="220" height="220"/>
  <g>
    <g>
      <path class="cls-2" d="M95.81,62.11l-15.34-14.09c-3.12-2.87-7.97-2.66-10.83.46h0c-2.87,3.12-2.66,7.97.46,10.83l58,53.3c3.12,2.87,7.97,2.66,10.83-.46h0c2.87-3.12,2.66-7.97-.46-10.83l-15.34-14.09c-3.12-2.87-3.32-7.71-.46-10.83l.91-1c2.87-3.12,7.71-3.32,10.83-.46l15.34,14.09c3.12,2.87,7.97,2.66,10.83-.46h0c2.87-3.12,2.66-7.97-.46-10.83l-31.37-28.83c-3.12-2.87-7.97-2.66-10.83.46l-11.29,12.28c-2.87,3.12-7.71,3.32-10.83.46Z"/>
      <path class="cls-3" d="M111.89,142.12c-2.89,0-5.65-1.08-7.78-3.03l-58-53.3c-4.67-4.29-4.98-11.58-.69-16.25,2.17-2.36,5.26-3.72,8.47-3.72,2.89,0,5.65,1.08,7.78,3.03l18.16,16.69,13.67-14.87c2.23-2.43,5.4-3.82,8.7-3.82,2.97,0,5.81,1.11,7.99,3.12l31.13,28.61c2.26,2.08,3.58,4.91,3.71,7.98s-.94,6-3.02,8.26c-2.17,2.36-5.26,3.72-8.47,3.72-2.89,0-5.65-1.08-7.78-3.03l-15.34-14.1c-.71-.65-1.63-1.01-2.59-1.01-1.09,0-2.09.44-2.83,1.24l-.91.99c-.69.75-1.05,1.73-1.01,2.76.04,1.02.48,1.97,1.24,2.66l15.34,14.09c4.67,4.29,4.98,11.58.69,16.25-2.17,2.36-5.26,3.72-8.47,3.72Z"/>
      <path class="cls-1" d="M80.07,90.96l-20.98-19.28c-3.12-2.87-7.97-2.66-10.83.46h0c-2.87,3.12-2.66,7.97.46,10.83l58,53.3c3.12,2.87,7.97,2.66,10.83-.46h0c2.87-3.12,2.66-7.97-.46-10.83l-15.34-14.09c-3.12-2.87-3.32-7.71-.46-10.83l.91-1c2.87-3.12,7.71-3.32,10.83-.46l15.34,14.09c3.12,2.87,7.97,2.66,10.83-.46h0c2.87-3.12,2.66-7.97-.46-10.83l-31.13-28.61c-3.25-2.98-8.3-2.77-11.28.48l-16.26,17.7Z"/>
    </g>
    <g>
      <path class="cls-2" d="M31.32,150.79l-3.68,3.25c-1.29-1.8-2.61-2.7-3.95-2.7-.65,0-1.18.17-1.6.52-.41.35-.62.74-.62,1.18s.15.85.44,1.24c.4.52,1.62,1.64,3.64,3.35,1.9,1.58,3.05,2.58,3.45,3,1.01,1.02,1.72,1.99,2.14,2.92.42.93.63,1.94.63,3.04,0,2.14-.74,3.91-2.22,5.31-1.48,1.4-3.41,2.09-5.79,2.09-1.86,0-3.48-.46-4.86-1.37s-2.56-2.34-3.54-4.29l4.18-2.52c1.26,2.31,2.7,3.46,4.34,3.46.85,0,1.57-.25,2.15-.75.58-.5.87-1.07.87-1.72,0-.59-.22-1.18-.66-1.77-.44-.59-1.41-1.5-2.9-2.72-2.84-2.32-4.68-4.11-5.51-5.37s-1.24-2.52-1.24-3.77c0-1.81.69-3.36,2.07-4.66s3.08-1.94,5.11-1.94c1.3,0,2.54.3,3.72.91,1.18.6,2.45,1.7,3.83,3.3Z"/>
      <path class="cls-2" d="M57.58,147.25h5.27c2.85,0,4.91.26,6.17.79,1.26.53,2.25,1.38,2.98,2.56s1.09,2.59,1.09,4.23c0,1.82-.48,3.34-1.43,4.54-.95,1.21-2.24,2.05-3.88,2.52-.96.27-2.7.41-5.23.41v11.05h-4.97v-26.1ZM62.55,157.45h1.58c1.24,0,2.11-.09,2.59-.27.48-.18.87-.47,1.14-.88.28-.41.42-.91.42-1.49,0-1.01-.39-1.74-1.17-2.21-.57-.34-1.62-.52-3.16-.52h-1.4v5.36Z"/>
      <path class="cls-2" d="M111.35,146.59c3.69,0,6.87,1.34,9.53,4.01,2.66,2.67,3.99,5.93,3.99,9.78s-1.31,7.03-3.93,9.67c-2.62,2.64-5.8,3.96-9.54,3.96s-7.17-1.35-9.77-4.06c-2.59-2.71-3.89-5.93-3.89-9.65,0-2.5.6-4.79,1.81-6.89,1.21-2.09,2.87-3.75,4.98-4.98s4.39-1.84,6.83-1.84ZM111.3,151.45c-2.42,0-4.45.84-6.09,2.52-1.65,1.68-2.47,3.82-2.47,6.41,0,2.89,1.04,5.17,3.11,6.85,1.61,1.31,3.46,1.97,5.54,1.97,2.36,0,4.36-.85,6.02-2.56s2.49-3.8,2.49-6.3-.84-4.59-2.5-6.31c-1.67-1.72-3.7-2.58-6.09-2.58Z"/>
      <path class="cls-2" d="M150.96,147.25h5.26c2.88,0,4.94.26,6.16.77,1.22.51,2.21,1.37,2.95,2.56s1.12,2.61,1.12,4.24c0,1.72-.41,3.15-1.23,4.3s-2.06,2.03-3.72,2.62l6.18,11.61h-5.43l-5.87-11.05h-.45v11.05h-4.97v-26.1ZM155.93,157.45h1.56c1.58,0,2.67-.21,3.26-.62.6-.41.89-1.1.89-2.07,0-.57-.15-1.06-.44-1.49-.3-.42-.69-.72-1.19-.91s-1.4-.28-2.72-.28h-1.36v5.36Z"/>
      <path class="cls-2" d="M190.21,147.25h14.43v4.9h-4.75v21.2h-5.04v-21.2h-4.63v-4.9Z"/>
    </g>
  </g>
</svg>